<?xml version="1.0" encoding="utf-8"?>
<!-- Generator: Adobe Illustrator 27.5.0, SVG Export Plug-In . SVG Version: 6.00 Build 0)  -->
<svg version="1.1" xmlns="http://www.w3.org/2000/svg" xmlns:xlink="http://www.w3.org/1999/xlink" x="0px" y="0px"
	 viewBox="0 0 500 500" style="enable-background:new 0 0 500 500;" xml:space="preserve">
<g id="BACKGROUND">
	<rect x="0" style="fill:#FFFFFF;" width="500" height="500"/>
</g>
<g id="OBJECTS">
	<g>
		<path style="fill:#07293E;" d="M267.366,296.794l-72.984,12.869c-8.092,1.427-15.809-3.976-17.236-12.069l-27.795-157.632
			c-1.427-8.092,3.976-15.809,12.069-17.236l72.984-12.869c8.092-1.427,15.809,3.976,17.236,12.069l27.795,157.632
			C280.862,287.65,275.458,295.367,267.366,296.794z"/>
		<path style="fill:#FFFFFF;" d="M212.518,126.757l-24.751,4.364c-1.392,0.245-2.72-0.684-2.965-2.076l0,0
			c-0.245-1.392,0.684-2.72,2.076-2.965l24.751-4.364c1.392-0.245,2.719,0.684,2.965,2.076l0,0
			C214.84,125.184,213.91,126.512,212.518,126.757z"/>
		
			<rect x="169.631" y="135.151" transform="matrix(0.9848 -0.1736 0.1736 0.9848 -33.2077 40.4557)" style="fill:#FFFFFF;" width="89.94" height="149.721"/>
	</g>
	<g>
		<g>
			<path style="fill:#F15513;" d="M309.791,285.096l-74.774-13.468c-4.298-0.774-7.465-4.361-7.545-8.546l-1.198-62.399
				l116.463,20.976l-22.894,58.06C318.309,283.614,314.09,285.871,309.791,285.096z"/>
			<path style="fill:#F15513;" d="M340.036,238.875L222.8,217.759c-4.734-0.853-7.881-5.382-7.028-10.116l0,0
				c0.853-4.734,5.382-7.881,10.116-7.028l117.236,21.115c4.734,0.853,7.881,5.382,7.029,10.116l0,0
				C349.3,236.581,344.77,239.727,340.036,238.875z"/>
			<g>
				<g>
					<path style="fill:#07293E;" d="M241.004,260.129c-1.237-0.223-2.059-1.406-1.836-2.643l4.034-22.397
						c0.223-1.237,1.406-2.059,2.643-1.836c1.237,0.223,2.059,1.406,1.836,2.643l-4.034,22.397
						C243.424,259.53,242.241,260.352,241.004,260.129z"/>
				</g>
				<g>
					<path style="fill:#07293E;" d="M308.194,272.231c-1.237-0.223-2.059-1.406-1.836-2.643l4.034-22.397
						c0.223-1.237,1.406-2.059,2.643-1.836c1.237,0.223,2.059,1.406,1.836,2.643l-4.034,22.397
						C310.615,271.631,309.431,272.454,308.194,272.231z"/>
				</g>
				<g>
					<path style="fill:#07293E;" d="M291.397,269.205c-1.237-0.223-2.059-1.406-1.836-2.643l4.034-22.397
						c0.223-1.237,1.406-2.059,2.643-1.836c1.237,0.223,2.059,1.406,1.836,2.643l-4.034,22.397
						C293.817,268.606,292.634,269.428,291.397,269.205z"/>
				</g>
				<g>
					<path style="fill:#07293E;" d="M274.599,266.18c-1.237-0.223-2.059-1.406-1.836-2.643l4.034-22.397
						c0.223-1.237,1.406-2.059,2.643-1.836c1.237,0.223,2.059,1.406,1.836,2.643l-4.034,22.397
						C277.02,265.581,275.836,266.403,274.599,266.18z"/>
				</g>
				<g>
					<path style="fill:#07293E;" d="M257.801,263.155c-1.237-0.223-2.059-1.406-1.836-2.643l4.034-22.397
						c0.223-1.237,1.406-2.059,2.643-1.836c1.237,0.223,2.059,1.406,1.836,2.643l-4.034,22.397
						C260.222,262.555,259.038,263.377,257.801,263.155z"/>
				</g>
			</g>
		</g>
		<g>
			<path style="fill:#35B3F1;" d="M280.16,190.054l-23.732,27.926c-1.63,1.929-4.516,2.171-6.445,0.54l0,0
				c-1.929-1.631-2.171-4.516-0.54-6.445l23.732-27.926c1.63-1.929,4.516-2.171,6.445-0.54l0,0
				C281.549,185.24,281.79,188.126,280.16,190.054z"/>
			<path style="fill:#35B3F1;" d="M295.75,192.803l12.749,34.358c0.872,2.37,3.501,3.584,5.871,2.712l0,0
				c2.37-0.873,3.584-3.501,2.712-5.871l-12.749-34.358c-0.873-2.37-3.501-3.584-5.871-2.712l0,0
				C296.091,187.805,294.878,190.433,295.75,192.803z"/>
		</g>
	</g>
	<path style="fill:#F15513;" d="M313.493,142.925c0-6.039-6.077-10.864-11.476-7.601c-4.316,2.609-8.2,7.602-8.2,7.602
		s-3.654-4.803-7.812-7.365c-5.492-3.383-11.864,1.179-11.864,7.364c0,10.867,19.676,25.043,19.676,25.043
		S313.493,153.792,313.493,142.925z"/>
</g>
<g id="TEXTS">
	<g>
		<g>
			
				<text transform="matrix(1.0008 0 0 1 138.5957 362.2754)" style="fill:#07293E; font-family:'Montserrat-ExtraBold'; font-size:39.8969px;">COMPANY</text>
		</g>
		
			<text transform="matrix(1.0008 0 0 1 196.7095 389.667)" style="fill:#35B3F1; font-family:'Montserrat-Medium'; font-size:21.7106px; letter-spacing:0.999;">TAGLINE</text>
	</g>
</g>
</svg>
